<svg xmlns="http://www.w3.org/2000/svg" viewBox="0 0 218.5 165">
  <path d="M0,44.1H88.1V20a20,20,0,0,0-20-20H20A20,20,0,0,0,0,20Z" transform="translate(0 0)" fill="#0050ff"/>
  <path d="M30,27.8H21c-1.6,0-2-.8-2-1.6V25c0-.8.4-1.6,2-1.6h9v4.4ZM14.3,14.7v2.8H28.4c1.6,0,1.6.8,1.6,1.6v1.6H16.6a2.9,2.9,0,0,0-3.1,3.2v3.6a2.9,2.9,0,0,0,2.6,3.2H35.5V17.9a2.9,2.9,0,0,0-2.6-3.2H14.3Z" transform="translate(0 0)" fill="#fff"/>
  <path id="a" d="M0,44.1H88.1v24a20,20,0,0,1-20,20H20a20,20,0,0,1-20-20Z" transform="translate(0 0)" fill="#1060ff"/>
  <path d="M64.4,74.7c6.1,0,10.9-3.9,10.9-8.6s-4.8-8.6-10.9-8.6-10.9,3.9-10.9,8.6S58.4,74.7,64.4,74.7Zm0,1.4c-6.8,0-12.4-4.5-12.4-10s5.5-10,12.4-10,12.4,4.5,12.4,10S71.3,76.1,64.4,76.1Z" transform="translate(0 0)" fill="#fff"/>
  <path d="M64.4,74.7c4.2,0,7.6-3.8,7.6-8.6s-3.5-8.6-7.6-8.6-7.6,3.8-7.6,8.6S60.3,74.7,64.4,74.7Zm0,1.4c-5,0-9.1-4.5-9.1-10s4.1-10,9.1-10,9.1,4.5,9.1,10S69.5,76.1,64.4,76.1Z" transform="translate(0 0)" fill="#fff"/>
  <path d="M64.4,74.7c1.7,0,3.7-3.7,3.7-8.6s-1.9-8.6-3.6-8.6-3.7,3.7-3.7,8.6S62.7,74.7,64.4,74.7Zm0,1.4c-2.8,0-5.1-4.5-5.1-10s2.3-10,5.1-10,5.1,4.5,5.1,10S67.3,76.1,64.4,76.1Z" transform="translate(0 0)" fill="#fff"/>
  <path d="M53.1,65.4H76.3v1.4H53.1Z" transform="translate(0 0)" fill="#fff"/>
  <path d="M65.2,57.5V75.1H63.7V57.5Z" transform="translate(0 0)" fill="#fff"/>
  <g style="isolation: isolate">
    <path d="M12.4,119.2H9.9V108h-6v11.2H1.4V105.7H12.4Z" transform="translate(0 0)" fill="#fff"/>
    <path d="M23.5,109.2l-4.3,11.4a2.7,2.7,0,0,1-2.8,1.7H14.8v-2.1h1a1.4,1.4,0,0,0,1.4-1l.2-.5-3.7-9.6h2.5l2.3,6.5,2.3-6.5Z" transform="translate(0 0)" fill="#fff"/>
  </g>
  <g style="isolation: isolate">
    <path d="M23.6,109.2h8.9v2.2H29.3v7.8H26.9v-7.8H23.6Z" transform="translate(0 0)" fill="#fff"/>
  </g>
  <g style="isolation: isolate">
    <path d="M42.3,114.9H35.4a2.3,2.3,0,0,0,.8,1.8,2.7,2.7,0,0,0,1.8.6,2.6,2.6,0,0,0,1.4-.4,1.7,1.7,0,0,0,.8-1.1h2.2a4.2,4.2,0,0,1-.6,1.5,4,4,0,0,1-1,1.1l-1.3.7-1.6.2a5.1,5.1,0,0,1-1.8-.3,4.2,4.2,0,0,1-1.5-1,4.8,4.8,0,0,1-1-1.6,5.9,5.9,0,0,1-.4-2.2,6.1,6.1,0,0,1,.4-2.2,4.7,4.7,0,0,1,1-1.6,4.4,4.4,0,0,1,1.5-1,5,5,0,0,1,1.9-.4,4.7,4.7,0,0,1,1.8.3,4,4,0,0,1,1.4.9,4.5,4.5,0,0,1,.9,1.5,6,6,0,0,1,.3,2.1Zm-4.5-3.8a2.5,2.5,0,0,0-1.6.5,2.2,2.2,0,0,0-.8,1.5h4.5a2,2,0,0,0-.6-1.5A2.2,2.2,0,0,0,37.8,111.1Z" transform="translate(0 0)" fill="#fff"/>
    <path d="M44,109.2h4.3l1.5.2,1.1.6a2.2,2.2,0,0,1,.6.9,2.8,2.8,0,0,1,.2,1,2.4,2.4,0,0,1-.3,1.1,2,2,0,0,1-.9.9,2.9,2.9,0,0,1,1.1.9,2.3,2.3,0,0,1,.4,1.3,3.1,3.1,0,0,1-.2,1.1,2.4,2.4,0,0,1-.6.9l-1.1.6-1.6.2H44Zm2.4,1.8v2.3h1.8a1.1,1.1,0,0,0,.9-.4,1.2,1.2,0,0,0,0-1.6,1.1,1.1,0,0,0-.9-.4Zm0,4v2.4h2.1a1.1,1.1,0,0,0,.9-.4,1.3,1.3,0,0,0,.3-.8,1.3,1.3,0,0,0-.3-.8,1.1,1.1,0,0,0-.9-.4Z" transform="translate(0 0)" fill="#fff"/>
  </g>
  <g style="isolation: isolate">
    <path d="M58.1,109.1a5.2,5.2,0,0,1,2,.4,4.4,4.4,0,0,1,1.5,1,4.7,4.7,0,0,1,1,1.6,6,6,0,0,1,.4,2.1,6,6,0,0,1-.4,2.2,4.8,4.8,0,0,1-1,1.6,4.4,4.4,0,0,1-1.5,1,5.4,5.4,0,0,1-3.9,0,4.4,4.4,0,0,1-1.5-1,4.7,4.7,0,0,1-1-1.6,6.1,6.1,0,0,1-.4-2.1,6.1,6.1,0,0,1,.4-2.1,4.7,4.7,0,0,1,1-1.6,4.4,4.4,0,0,1,1.5-1A5.1,5.1,0,0,1,58.1,109.1Zm0,2.2a2.1,2.1,0,0,0-1.7.8,3.4,3.4,0,0,0-.6,2.2,3.1,3.1,0,0,0,.7,2.1,2.3,2.3,0,0,0,1.8.7,2.1,2.1,0,0,0,1.7-.8,3.4,3.4,0,0,0,.6-2.2,3,3,0,0,0-.7-2.1A2.3,2.3,0,0,0,58,111.3Z" transform="translate(0 0)" fill="#fff"/>
  </g>
  <g style="isolation: isolate">
    <path d="M74.4,121.7H72.1v-2.5H65.7v2.5H63.4v-4.7h1.2l.2-.7a9.1,9.1,0,0,0,.2-1.1q.1-.6.1-1.6t0-2.2v-2.3h7.8v7.8h1.4Zm-6.9-9.7q0,.7,0,1.5c0,.5-.1,1-.1,1.4s-.1.9-.1,1.3a6.7,6.7,0,0,1-.2.9h3.5v-5.7h-3Z" transform="translate(0 0)" fill="#fff"/>
    <path d="M82.3,112.6l-3.9,6.6H75.8v-10h2.4v6.6l3.9-6.6h2.6v10H82.3Z" transform="translate(0 0)" fill="#fff"/>
  </g>
  <g style="isolation: isolate">
    <path d="M86,109.2h8.9v2.2H91.6v7.8H89.2v-7.8H86Z" transform="translate(0 0)" fill="#fff"/>
  </g>
  <g style="isolation: isolate">
    <path d="M104.6,114.9H97.7a2.3,2.3,0,0,0,.8,1.8,2.7,2.7,0,0,0,1.8.6,2.6,2.6,0,0,0,1.4-.4,1.7,1.7,0,0,0,.8-1.1h2.2a4.2,4.2,0,0,1-.6,1.5,4,4,0,0,1-1,1.1l-1.3.7-1.6.2a5.1,5.1,0,0,1-1.8-.3,4.2,4.2,0,0,1-1.5-1,4.8,4.8,0,0,1-1-1.6,5.9,5.9,0,0,1-.4-2.2,6.1,6.1,0,0,1,.4-2.2,4.7,4.7,0,0,1,1-1.6,4.4,4.4,0,0,1,1.5-1,5,5,0,0,1,1.9-.4,4.7,4.7,0,0,1,1.8.3,4,4,0,0,1,1.4.9,4.5,4.5,0,0,1,.9,1.5,6,6,0,0,1,.3,2.1Zm-4.5-3.8a2.5,2.5,0,0,0-1.6.5,2.2,2.2,0,0,0-.8,1.5h4.5a2,2,0,0,0-.6-1.5A2.2,2.2,0,0,0,100.2,111.1Z" transform="translate(0 0)" fill="#fff"/>
    <path d="M114.5,119.2h-2.4v-7.8h-2.9v1.7a17.5,17.5,0,0,1-.3,3.3,4.8,4.8,0,0,1-.7,1.9,2,2,0,0,1-1.2.8,4.8,4.8,0,0,1-1.7,0v-2.1h.9a1,1,0,0,0,.4-.6,6.5,6.5,0,0,0,.2-1.5q.1-1,.1-2.7v-3h7.6Z" transform="translate(0 0)" fill="#fff"/>
    <path d="M123,112.6l-3.9,6.6h-2.6v-10h2.4v6.6l3.9-6.6h2.6v10H123Z" transform="translate(0 0)" fill="#fff"/>
  </g>
  <g style="isolation: isolate">
    <path d="M134.9,116.5l-1.3,1.2-3.5-4,3.5-4,1.3,1.2-2.4,2.7Zm4.7,0-1.3,1.2-3.5-4,3.5-4,1.3,1.2-2.4,2.7Z" transform="translate(0 0)" fill="#fff"/>
  </g>
  <g style="isolation: isolate">
    <path d="M150,116.2h-5.7l-1.1,3h-2.7l5.2-13.5h2.8l5.4,13.5h-2.8Zm-.9-2.4-2-5.3-2,5.3Z" transform="translate(0 0)" fill="#fff"/>
  </g>
  <g style="isolation: isolate">
    <path d="M161,122.9v-4.8l-.4.4-.6.4-.7.3h-.9a3.4,3.4,0,0,1-1.4-.3,3.7,3.7,0,0,1-1.3-.9,5,5,0,0,1-.9-1.6,6.4,6.4,0,0,1-.4-2.3,6.8,6.8,0,0,1,.3-2.2,4.8,4.8,0,0,1,.9-1.6,3.7,3.7,0,0,1,1.2-.9,3.4,3.4,0,0,1,1.4-.3h.8l.7.3.6.5.4.6v-5h2.4v5l.4-.6.6-.5.7-.3h.8a3.4,3.4,0,0,1,1.4.3,3.7,3.7,0,0,1,1.2.9,4.8,4.8,0,0,1,.9,1.6,6.8,6.8,0,0,1,.3,2.2,6.5,6.5,0,0,1-.4,2.3,5,5,0,0,1-.9,1.6,3.7,3.7,0,0,1-1.3.9,3.4,3.4,0,0,1-1.4.3,3.1,3.1,0,0,1-1.6-.4,2.9,2.9,0,0,1-.9-.8v4.8Zm-2-5.7.7-.2.7-.5a3,3,0,0,0,.5-.9,4.8,4.8,0,0,0,0-2.7,3,3,0,0,0-.5-.9l-.7-.5-.7-.2-.7.2-.7.5a2.8,2.8,0,0,0-.5.9,5,5,0,0,0,0,2.7,2.9,2.9,0,0,0,.5.9l.7.5Zm6.4,0,.7-.2.7-.5a2.9,2.9,0,0,0,.5-.9,5,5,0,0,0,0-2.7,2.8,2.8,0,0,0-.5-.9l-.7-.5-.7-.2-.7.2-.7.5a3,3,0,0,0-.5.9,4.8,4.8,0,0,0,0,2.7,3,3,0,0,0,.5.9l.7.5Z" transform="translate(0 0)" fill="#fff"/>
    <path d="M178.1,112.6l-3.9,6.6h-2.6v-10H174v6.6l3.9-6.6h2.6v10h-2.4Z" transform="translate(0 0)" fill="#fff"/>
    <path d="M182.8,109.2h2.4v7.8h3v-7.8h2.4v7.8h3v-7.8h2.4v10H182.8Z" transform="translate(0 0)" fill="#fff"/>
    <path d="M204.9,112.6l-3.9,6.6h-2.6v-10h2.4v6.6l3.9-6.6h2.6v10h-2.4Z" transform="translate(0 0)" fill="#fff"/>
  </g>
  <g style="isolation: isolate">
    <path d="M208.9,111l1.3-1.2,3.5,4-3.5,4-1.3-1.2,2.4-2.7Zm4.7,0,1.3-1.2,3.5,4-3.5,4-1.3-1.2,2.4-2.7Z" transform="translate(0 0)" fill="#fff"/>
  </g>
  <g style="isolation: isolate">
    <path d="M8,142v-9.3H2.5V142H1.2V131.5H9.3V142Z" transform="translate(0 0)" fill="#fff"/>
    <path d="M14,143.4a1.6,1.6,0,0,1-.7.8,2.4,2.4,0,0,1-1.2.3h-.8v-1.1h1.4l.3-.3.2-.4.3-.8-2.8-7.3h1.3l2.1,5.7,2.1-5.7h1.3Z" transform="translate(0 0)" fill="#fff"/>
  </g>
  <g style="isolation: isolate">
    <path d="M20.3,142v-6.5H17.7v-1.1h6.5v1.1H21.5V142Z" transform="translate(0 0)" fill="#fff"/>
  </g>
  <g style="isolation: isolate">
    <path d="M25.9,138.5a2.7,2.7,0,0,0,.7,1.9,2.4,2.4,0,0,0,1.7.6h.7l.6-.3.4-.5a1.7,1.7,0,0,0,.3-.6h1.2a3.1,3.1,0,0,1-.4,1.1,2.9,2.9,0,0,1-.8.8l-1,.5-1.1.2-1.4-.3a3.2,3.2,0,0,1-1.1-.8,3.5,3.5,0,0,1-.8-1.2,4.9,4.9,0,0,1-.3-1.7,4.7,4.7,0,0,1,.3-1.8,3.5,3.5,0,0,1,.8-1.2,3.2,3.2,0,0,1,1.1-.7l1.3-.2,1.3.2a2.9,2.9,0,0,1,1.1.7,3.3,3.3,0,0,1,.7,1.1,4.6,4.6,0,0,1,.3,1.6v.6Zm2.3-3.2a2.3,2.3,0,0,0-1.5.5,2.4,2.4,0,0,0-.7,1.6h4.4a2.2,2.2,0,0,0-.6-1.6A2,2,0,0,0,28.3,135.4Z" transform="translate(0 0)" fill="#fff"/>
    <path d="M33.2,134.4h1.2v6.5h3v-6.5h1.2v6.5h3v-6.5H43V142H33.2Z" transform="translate(0 0)" fill="#fff"/>
    <path d="M45.8,138.5a2.7,2.7,0,0,0,.7,1.9,2.4,2.4,0,0,0,1.7.6H49l.6-.3.4-.5a1.7,1.7,0,0,0,.3-.6h1.2a3.1,3.1,0,0,1-.4,1.1,2.9,2.9,0,0,1-.8.8l-1,.5-1.1.2-1.4-.3a3.2,3.2,0,0,1-1.1-.8,3.5,3.5,0,0,1-.8-1.2,4.9,4.9,0,0,1-.3-1.7,4.7,4.7,0,0,1,.3-1.8,3.5,3.5,0,0,1,.8-1.2,3.2,3.2,0,0,1,1.1-.7l1.3-.2,1.3.2a2.9,2.9,0,0,1,1.1.7,3.3,3.3,0,0,1,.7,1.1,4.6,4.6,0,0,1,.3,1.6v.6Zm2.3-3.2a2.3,2.3,0,0,0-1.5.5,2.4,2.4,0,0,0-.7,1.6h4.4a2.2,2.2,0,0,0-.6-1.6A2,2,0,0,0,48.2,135.4Z" transform="translate(0 0)" fill="#fff"/>
    <path d="M59.4,139.3a2.9,2.9,0,0,1-1,2.1l-1,.6-1.2.2-1.4-.3a3.2,3.2,0,0,1-1.1-.8,3.5,3.5,0,0,1-.8-1.2,4.8,4.8,0,0,1-.3-1.7,4.7,4.7,0,0,1,.3-1.7,3.6,3.6,0,0,1,.8-1.2,3.3,3.3,0,0,1,1.1-.8l1.4-.3h.1l1.2.2,1,.6a2.5,2.5,0,0,1,.7.9,2.9,2.9,0,0,1,.3,1.2H58.2a1.7,1.7,0,0,0-.2-.7l-.4-.5-.6-.3h-.7l-.9.2-.8.6a2.6,2.6,0,0,0-.5.9,3.7,3.7,0,0,0-.2,1.2,3.5,3.5,0,0,0,.2,1.2,2.6,2.6,0,0,0,.5.9l.7.5.9.2H57l.6-.4.4-.6a1.7,1.7,0,0,0,.2-.7Z" transform="translate(0 0)" fill="#fff"/>
    <path d="M62.8,142v-6.5H60.2v-1.1h6.5v1.1H64V142Z" transform="translate(0 0)" fill="#fff"/>
    <path d="M71,134.4h1l.7.4.4.6a1.9,1.9,0,0,1,.2.8,2,2,0,0,1-.3,1,1.8,1.8,0,0,1-.8.7,1.7,1.7,0,0,1,1,.7,1.9,1.9,0,0,1,.4,1.1,2.1,2.1,0,0,1-.1.8,2,2,0,0,1-.4.7l-.7.5-1.1.2H67.8v-7.6Zm-2,1.1v2.2h2.4l.3-.3.2-.4a1.3,1.3,0,0,0,.1-.4,1.1,1.1,0,0,0-.3-.7,1,1,0,0,0-.8-.3Zm0,3.2V141h2.6l.4-.3.2-.4a1.4,1.4,0,0,0,.1-.4,1.1,1.1,0,0,0-1.2-1.1Z" transform="translate(0 0)" fill="#fff"/>
    <path d="M75.3,142v-7.6h1.2v5.8l3.9-5.8h1.3V142H80.4v-5.8L76.5,142Z" transform="translate(0 0)" fill="#fff"/>
    <path d="M85,139.1a2.2,2.2,0,0,1-1.2-.9,2.5,2.5,0,0,1-.4-1.4,2.5,2.5,0,0,1,.2-.9,2.1,2.1,0,0,1,.5-.7l.8-.5,1.2-.2h3.3V142H88.1v-2.8H86.4L84.4,142H83Zm3.1-.9v-2.6H85.5l-.4.3-.2.4a1.4,1.4,0,0,0-.1.5,1.6,1.6,0,0,0,.1.5l.2.4.4.3h2.7Z" transform="translate(0 0)" fill="#fff"/>
  </g>
  <g style="isolation: isolate">
    <path d="M7.9,154.4v1.2H2.5v3.2H5.3l1.4.2,1,.7a2.7,2.7,0,0,1,.6.9,3.1,3.1,0,0,1,.2,1.1,3.3,3.3,0,0,1-.2,1.2,3.1,3.1,0,0,1-.6,1,3.1,3.1,0,0,1-1.1.7,3.7,3.7,0,0,1-1.5.3h-4V154.4Zm-2.7,9.4.9-.2.7-.4.4-.6a2.1,2.1,0,0,0,.1-.7,2,2,0,0,0-.1-.7l-.4-.6-.6-.4-.9-.2H2.5v3.9Z" transform="translate(0 0)" fill="#fff"/>
    <path d="M10.9,161.4a2.7,2.7,0,0,0,.7,1.9,2.4,2.4,0,0,0,1.7.6H14l.6-.3.4-.5a1.7,1.7,0,0,0,.3-.6h1.2a3.1,3.1,0,0,1-.4,1.1,2.9,2.9,0,0,1-.8.8l-1,.5-1.1.2-1.4-.3a3.2,3.2,0,0,1-1.1-.8,3.5,3.5,0,0,1-.8-1.2,4.9,4.9,0,0,1-.3-1.7,4.7,4.7,0,0,1,.3-1.8,3.5,3.5,0,0,1,.8-1.2,3.2,3.2,0,0,1,1.1-.7l1.3-.2,1.3.2a2.9,2.9,0,0,1,1.1.7,3.3,3.3,0,0,1,.7,1.1,4.6,4.6,0,0,1,.3,1.6v.6Zm2.3-3.2a2.3,2.3,0,0,0-1.5.5,2.4,2.4,0,0,0-.7,1.6h4.4a2.2,2.2,0,0,0-.6-1.6A2,2,0,0,0,13.2,158.2Z" transform="translate(0 0)" fill="#fff"/>
    <path d="M24.5,162.2a2.9,2.9,0,0,1-1,2.1l-1,.6-1.2.2-1.4-.3a3.2,3.2,0,0,1-1.1-.8,3.5,3.5,0,0,1-.8-1.2,4.8,4.8,0,0,1-.3-1.7,4.7,4.7,0,0,1,.3-1.7,3.6,3.6,0,0,1,.8-1.2,3.3,3.3,0,0,1,1.1-.8l1.4-.3h.1l1.2.2,1,.6a2.5,2.5,0,0,1,.7.9,2.9,2.9,0,0,1,.3,1.1H23.3a1.7,1.7,0,0,0-.2-.7l-.4-.5-.6-.3h-.7l-.9.2-.8.6a2.6,2.6,0,0,0-.5.9,3.7,3.7,0,0,0-.2,1.2,3.5,3.5,0,0,0,.2,1.2,2.6,2.6,0,0,0,.5.9l.7.5.9.2H22l.6-.4.4-.6a1.7,1.7,0,0,0,.2-.7Z" transform="translate(0 0)" fill="#fff"/>
    <path d="M26.1,164.9v-7.6h6.1v7.6H31v-6.5H27.3v6.5Z" transform="translate(0 0)" fill="#fff"/>
    <path d="M33.4,163.8h.4l.5-.2a1.4,1.4,0,0,0,.3-.7,8.8,8.8,0,0,0,.1-1.3q0-.8,0-2.1v-2.2h5.5v7.6H39v-6.5H35.9v1.7a22.1,22.1,0,0,1-.1,2.5,4.2,4.2,0,0,1-.4,1.5,1.4,1.4,0,0,1-.8.7H33.4Z" transform="translate(0 0)" fill="#fff"/>
    <path d="M45.2,157.1a3.1,3.1,0,0,1,2.1.6,2.4,2.4,0,0,1,.7,1.9v5.2H46.8v-1.3a2.6,2.6,0,0,1-2.5,1.5l-1-.2-.8-.5a2.2,2.2,0,0,1-.5-.7,2.3,2.3,0,0,1-.2-1,1.9,1.9,0,0,1,.6-1.5,3.1,3.1,0,0,1,1.7-.7l1.7-.2.7-.2a.7.7,0,0,0,.3-.6,1,1,0,0,0-.5-.9,2.2,2.2,0,0,0-1.2-.3,1.9,1.9,0,0,0-1.2.4,1.5,1.5,0,0,0-.6,1H42.1a2.4,2.4,0,0,1,1-1.8A3.6,3.6,0,0,1,45.2,157.1Zm1.6,3.8-1.1.3-1.1.2q-1.6.2-1.6,1.3a1.1,1.1,0,0,0,.4.9,1.7,1.7,0,0,0,1,.3l.8-.2.7-.5a2.2,2.2,0,0,0,.5-.7,2.4,2.4,0,0,0,.2-1Z" transform="translate(0 0)" fill="#fff"/>
    <path d="M51.7,164.9v-6.5H49.1v-1.1h6.5v1.1H52.9v6.5Z" transform="translate(0 0)" fill="#fff"/>
    <path d="M56.8,164.9v-7.6H58v3.2h3.7v-3.2H63v7.6H61.7v-3.3H58v3.3Z" transform="translate(0 0)" fill="#fff"/>
  </g>
  <g style="isolation: isolate">
    <path d="M68.2,157.1a3.7,3.7,0,0,1,1.5.3,3.3,3.3,0,0,1,1.1.8,3.6,3.6,0,0,1,.7,1.2,4.8,4.8,0,0,1,.3,1.6,4.7,4.7,0,0,1-.3,1.6,3.6,3.6,0,0,1-.8,1.2,3.3,3.3,0,0,1-1.1.8,3.7,3.7,0,0,1-1.5.3,3.7,3.7,0,0,1-1.5-.3,3.2,3.2,0,0,1-1.1-.8,3.8,3.8,0,0,1-.7-1.2,4.7,4.7,0,0,1-.3-1.6,4.8,4.8,0,0,1,.3-1.6,3.6,3.6,0,0,1,.7-1.2,3.3,3.3,0,0,1,1.1-.8A3.7,3.7,0,0,1,68.2,157.1Zm2.3,3.9a3.6,3.6,0,0,0-.2-1.2,2.5,2.5,0,0,0-.5-.9l-.8-.5-.9-.2-1,.2-.7.6a2.6,2.6,0,0,0-.5.9,4,4,0,0,0-.2,1.2,3.5,3.5,0,0,0,.2,1.1,2.5,2.5,0,0,0,.5.9l.7.5.9.2a2.1,2.1,0,0,0,1.7-.8A3.2,3.2,0,0,0,70.5,161Z" transform="translate(0 0)" fill="#fff"/>
  </g>
</svg>
