<svg xmlns="http://www.w3.org/2000/svg" viewBox="0 0 194.3 164.7">
  <g>
    <path d="M55,166.2V126.9H187.6v39.2Z" transform="translate(0 -3.1)" fill="none"/>
    <rect id="a-3" x="54.9" y="123.8" width="132.8" height="39.94" rx="6" ry="6" fill="none" stroke="#fff" stroke-width="2"/>
    <path d="M84.5,146.4a5.7,5.7,0,0,1,2.7-4.8,5.8,5.8,0,0,0-4.6-2.5c-1.9-.2-3.8,1.2-4.8,1.2s-2.5-1.1-4.2-1.1a6.1,6.1,0,0,0-5.2,3.1c-2.2,3.9-.6,9.5,1.6,12.6,1.1,1.5,2.3,3.2,4,3.2s2.2-1,4.1-1,2.5,1,4.1,1,2.8-1.5,3.8-3.1a12.6,12.6,0,0,0,1.7-3.6,5.5,5.5,0,0,1-3.4-5.1M81.4,137a5.6,5.6,0,0,0,1.3-4,5.7,5.7,0,0,0-3.7,1.9,5.3,5.3,0,0,0-1.3,3.9,4.7,4.7,0,0,0,3.7-1.8m22.5,15.4-1.1-3.4-.7-2.5h0l-.6,2.5-1.1,3.4Zm3.8,5.4h-2.2l-1.2-3.8H99.9l-1.2,3.9H96.6l4.2-13.1h2.6l4.2,13.1Zm8.7-4.8a3.9,3.9,0,0,0-.6-2.3,2.1,2.1,0,0,0-1.8-.9,2.2,2.2,0,0,0-1.4.5,2.4,2.4,0,0,0-.8,1.3,2.7,2.7,0,0,0-.1.6V154a2.5,2.5,0,0,0,.6,1.7,2.1,2.1,0,0,0,1.6.7,2.1,2.1,0,0,0,1.8-.9,4,4,0,0,0,.7-2.4Zm2.1-.1a5.4,5.4,0,0,1-1.3,3.8,3.8,3.8,0,0,1-2.9,1.2,2.9,2.9,0,0,1-2.7-1.3h0v5h-2.1V151.5q0-1.5-.1-3.1h1.8v1.5h0a3.7,3.7,0,0,1,5.2-1.1l.8.7a5.2,5.2,0,0,1,1.1,3.5Zm8.7.1a3.9,3.9,0,0,0-.6-2.3,2.1,2.1,0,0,0-1.8-.9,2.2,2.2,0,0,0-1.4.5,2.4,2.4,0,0,0-.8,1.3,2.8,2.8,0,0,0-.1.6V154a2.5,2.5,0,0,0,.6,1.7,2.1,2.1,0,0,0,1.6.7,2.1,2.1,0,0,0,1.8-.9,4,4,0,0,0,.7-2.4Zm2.1-.1a5.3,5.3,0,0,1-1.3,3.8,3.8,3.8,0,0,1-2.9,1.2,2.9,2.9,0,0,1-2.7-1.3h0v5h-2.1V151.5q0-1.5-.1-3.1h1.8v1.5h0a3.7,3.7,0,0,1,5.2-1.1l.8.7a5.2,5.2,0,0,1,1.1,3.5Zm12.1,1.2a3.5,3.5,0,0,1-1.2,2.7,5.2,5.2,0,0,1-3.6,1.1,6.3,6.3,0,0,1-3.4-.8l.5-1.7a5.8,5.8,0,0,0,3,.8,2.9,2.9,0,0,0,1.8-.5,1.7,1.7,0,0,0,.7-1.4,1.8,1.8,0,0,0-.5-1.3,5.1,5.1,0,0,0-1.8-1q-3.4-1.3-3.4-3.7a3.3,3.3,0,0,1,1.2-2.6,4.8,4.8,0,0,1,3.2-1,6.4,6.4,0,0,1,3,.6l-.5,1.7a5.2,5.2,0,0,0-2.5-.6,2.5,2.5,0,0,0-1.7.5,1.5,1.5,0,0,0-.5,1.2,1.6,1.6,0,0,0,.6,1.3,6.7,6.7,0,0,0,1.9,1,6.5,6.5,0,0,1,2.5,1.6,3.3,3.3,0,0,1,.8,2.3m6.9-4.2h-2.3v4.6q0,1.7,1.2,1.7h.9v1.6l-1.6.2a2.5,2.5,0,0,1-1.9-.8,3.7,3.7,0,0,1-.7-2.5V150h-1.4v-1.6H144v-1.7l2.1-.6v2.3h2.3V150m8.2,3.1a4.2,4.2,0,0,0-.6-2.2,2.1,2.1,0,0,0-1.9-1.1,2.1,2.1,0,0,0-1.9,1.1,4.3,4.3,0,0,0-.6,2.3,4.2,4.2,0,0,0,.6,2.2,2.1,2.1,0,0,0,3.8,0,4.2,4.2,0,0,0,.6-2.3Zm2.2-.1a5.2,5.2,0,0,1-1.2,3.6,4.4,4.4,0,0,1-3.5,1.4,4.2,4.2,0,0,1-3.3-1.4,5,5,0,0,1-1.2-3.5,5.1,5.1,0,0,1,1.3-3.6,4.4,4.4,0,0,1,3.4-1.4,4.3,4.3,0,0,1,3.3,1.4,5,5,0,0,1,1.2,3.4Zm6.8-2.8H165a2,2,0,0,0-1.7.8,3.1,3.1,0,0,0-.5,1.8v5h-2.1v-6.5q0-1.6-.1-3h1.8v1.8h.1a3.2,3.2,0,0,1,1-1.5,2.5,2.5,0,0,1,1.5-.5h.5v2m7.4,1.9a2.8,2.8,0,0,0-.4-1.6,1.8,1.8,0,0,0-1.7-.9,2,2,0,0,0-1.7.8,3.1,3.1,0,0,0-.6,1.6H173Zm2,.5a4.9,4.9,0,0,1-.1,1h-6.3a2.7,2.7,0,0,0,.9,2.1,3.1,3.1,0,0,0,2.1.7,7,7,0,0,0,2.5-.4l.3,1.5a7.9,7.9,0,0,1-3.2.6,4.6,4.6,0,0,1-3.4-1.3,4.8,4.8,0,0,1-1.2-3.5,5.4,5.4,0,0,1,1.2-3.5,4,4,0,0,1,3.3-1.5,3.5,3.5,0,0,1,3.1,1.5,5.1,5.1,0,0,1,.8,2.9ZM97.6,134.1l.8-.3h1a2.2,2.2,0,0,1,1.5.4,1.4,1.4,0,0,1,.5,1.2,1.4,1.4,0,0,1-.4,1,1.7,1.7,0,0,1-.9.5h0l.6.2.5.3a1.4,1.4,0,0,1,.4,1.1,1.7,1.7,0,0,1-.2.9l-.6.6-.8.3H98.3l-.8-.3.3-.8.6.2h.8a1.6,1.6,0,0,0,1-.3,1.1,1.1,0,0,0,.2-1.3l-.4-.3-.5-.2h-1v-.8h1l.4-.2.3-.3a.9.9,0,0,0,.1-.4.8.8,0,0,0-.3-.7,1.3,1.3,0,0,0-.8-.2h-.7l-.6.2-.2-.7m8,3.7a2.9,2.9,0,0,0-1.3.2.7.7,0,0,0-.4.7.7.7,0,0,0,.2.5l.5.2a1,1,0,0,0,.7-.3l.2-.3a.9.9,0,0,0,.1-.4Zm.1,2.3v-.5h0a1.6,1.6,0,0,1-1.4.6h-.6l-.4-.3-.3-.4a1.4,1.4,0,0,1-.1-.5,1.4,1.4,0,0,1,.7-1.3,3.9,3.9,0,0,1,2-.4h0q0-.9-1-.9a2.2,2.2,0,0,0-1.2.3l-.2-.7a3,3,0,0,1,1.6-.4q1.8,0,1.8,1.9V139a7,7,0,0,0,.1,1.1Zm5.8-4.6v.8h-1.9v3.8h-1v-4.6h3m4.8,2.3a2.4,2.4,0,0,0-.1-.6l-.2-.5-.4-.3a1.1,1.1,0,0,0-.9,0,1.2,1.2,0,0,0-.6.6,1.2,1.2,0,0,0-.1.5v.8a1.3,1.3,0,0,0,.1.5l.2.4.3.2h.4a1.1,1.1,0,0,0,.9-.4,2,2,0,0,0,.3-1.2Zm1,0a3.2,3.2,0,0,1-.1,1,2.4,2.4,0,0,1-.4.8,1.9,1.9,0,0,1-1.5.7,1.4,1.4,0,0,1-1.3-.7h0v2.4h-1v-6.5h.9v.7h0a1.9,1.9,0,0,1,2.3-.7l.6.5a2.3,2.3,0,0,1,.4.7,3,3,0,0,1,.1.9Zm5.5-2.3-1.2,3.2a14.4,14.4,0,0,1-.8,1.9,4.2,4.2,0,0,1-.8,1.1,2.3,2.3,0,0,1-1.1.6l-.2-.9.8-.4a2.3,2.3,0,0,0,.6-.8v-.4l-1.7-4.3h1.1l.9,2.6a2.1,2.1,0,0,0,.1.4v.5h0v-.9l.8-2.6H123m1.8,1.9h.5l.8-.2a.6.6,0,0,0,.3-.5.5.5,0,0,0-.2-.5l-.7-.2h-.6l-.5.2-.3-.7.8-.3h1.4l.6.2.4.4a1,1,0,0,1,.2.6.8.8,0,0,1-.1.4l-.2.3-.3.2h.1l.4.2.3.3a.9.9,0,0,1,.1.4,1.1,1.1,0,0,1-.2.7l-.5.4-.7.2h-1.6l-.8-.3.3-.7.6.2h.6l.8-.2a.6.6,0,0,0,.3-.5.6.6,0,0,0-.1-.3l-.3-.2h-1.4v-.6m5.5-1.9v3.6h0l.4-.7.4-.7,1.1-2.2h1.3v4.6h-1v-2.6a6.7,6.7,0,0,1,0-1h0l-.3.7-.3.6-.6,1.1-.6,1.2h-1.3v-4.6h1m8.6,0v.8h-1.4v3.8h-1v-3.8h-1.4v-.8H139m4.3,1.8a1.4,1.4,0,0,0-.3-.9.9.9,0,0,0-.8-.3,1,1,0,0,0-.8.3,1.5,1.5,0,0,0-.4.9Zm1,.3v.2a1.5,1.5,0,0,1,0,.2h-3.1a1.4,1.4,0,0,0,.4,1,1.5,1.5,0,0,0,1,.4l1.2-.2.2.7a3.9,3.9,0,0,1-1.6.3l-1-.2-.7-.5a2.1,2.1,0,0,1-.4-.7,2.8,2.8,0,0,1-.2-1,3,3,0,0,1,.2-1,2.4,2.4,0,0,1,.4-.8l.7-.5.9-.2.8.2.6.4a2,2,0,0,1,.4.7,2.8,2.8,0,0,1,.1.9Zm5.1,1.8h1.4l.3-.2a.6.6,0,0,0,.1-.4.5.5,0,0,0-.3-.5h-1.5v1.4Zm0-2h1.4l.2-.2a.5.5,0,0,0,.1-.3.5.5,0,0,0-.3-.5h-1.4Zm-1-1.8h2.9l.5.4a.9.9,0,0,1,.2.6.9.9,0,0,1-.3.7l-.3.2h-.3l.8.4a1,1,0,0,1,.3.8,1.1,1.1,0,0,1-.3.8l-.7.4-.8.2h-2.1Z" transform="translate(0 -3.1)" fill="#fff"/>
  </g>
  <g>
    <g style="isolation: isolate">
      <text transform="translate(9.8 147.8)" font-size="13.98" fill="#fff" font-family="Afisha-Regular, Afisha" letter-spacing="-0.03em" style="isolation: isolate">1</text>
      <g style="isolation: isolate">
        <path d="M23.5,145.6a3.1,3.1,0,0,1,1.4,1,2.6,2.6,0,0,1,.5,1.6,2.7,2.7,0,0,1-.3,1.2,2.6,2.6,0,0,1-.7.9l-1.1.6-1.4.2-1.4-.2-1.1-.6a2.7,2.7,0,0,1-.7-.9,2.6,2.6,0,0,1-.3-1.2,2.6,2.6,0,0,1,.5-1.6,3.1,3.1,0,0,1,1.4-1,2.5,2.5,0,0,1-1.7-2.4,2.6,2.6,0,0,1,.2-1.1,2.4,2.4,0,0,1,.7-.9l1-.5,1.3-.2,1.3.2,1,.5a2.5,2.5,0,0,1,.7.9,2.6,2.6,0,0,1-1.4,3.6ZM21.9,150a2.4,2.4,0,0,0,1.7-.5,1.9,1.9,0,0,0,0-2.7,2.4,2.4,0,0,0-1.7-.5,2.3,2.3,0,0,0-1.7.5,1.8,1.8,0,0,0-.6,1.3,1.8,1.8,0,0,0,.6,1.3A2.4,2.4,0,0,0,21.9,150Zm-2.1-6.8a1.6,1.6,0,0,0,.5,1.2,2.3,2.3,0,0,0,1.5.5,2.2,2.2,0,0,0,1.5-.5,1.5,1.5,0,0,0,.5-1.2,1.8,1.8,0,0,0-.1-.7l-.4-.6-.6-.4H21l-.6.4-.4.6A1.9,1.9,0,0,0,19.9,143.2Z" transform="translate(0 -3.1)" fill="#fff"/>
      </g>
      <text transform="translate(26.5 147.8)" font-size="13.98" fill="#fff" font-family="Afisha-Regular, Afisha" letter-spacing="-0.01em" style="isolation: isolate">+</text>
    </g>
    <rect id="a-4" x="1" y="123.8" width="40.2" height="39.94" rx="6" ry="6" fill="none" stroke="#fff" stroke-width="2"/>
  </g>
  <g style="isolation: isolate">
    <path d="M17.2,15.9a4.8,4.8,0,0,1-.4,2,4.9,4.9,0,0,1-1.2,1.7,6,6,0,0,1-1.9,1.1,7.1,7.1,0,0,1-2.5.4H3.8V3.1h7.7a5.6,5.6,0,0,1,2.1.4,4.8,4.8,0,0,1,1.6,1,4.3,4.3,0,0,1,.7,5.3,4.4,4.4,0,0,1-1.9,1.6,5.2,5.2,0,0,1,2.5,1.8A4.5,4.5,0,0,1,17.2,15.9ZM7.1,10.3h3.5a2.5,2.5,0,0,0,1.8-.6A2,2,0,0,0,13,8.2a1.8,1.8,0,0,0-.6-1.4,2.4,2.4,0,0,0-1.7-.6H7.1Zm0,7.6h3.7l1.3-.2.9-.5a2.4,2.4,0,0,0,.6-.8,2.2,2.2,0,0,0,.2-.9,2.2,2.2,0,0,0-.7-1.6,2.9,2.9,0,0,0-2-.7h-4Z" transform="translate(0 -3.1)" fill="#fff"/>
    <path d="M31.1,16.2A5.5,5.5,0,0,1,29.3,20a6.1,6.1,0,0,1-4.1,1.4,6.5,6.5,0,0,1-2.7-.6,6.1,6.1,0,0,1-2-1.5,6.3,6.3,0,0,1-1.2-2.2,8.3,8.3,0,0,1-.4-2.7,8.5,8.5,0,0,1,.4-2.7,6.2,6.2,0,0,1,1.2-2.2,5.9,5.9,0,0,1,2-1.5,6.5,6.5,0,0,1,2.8-.6,7.3,7.3,0,0,1,2.3.4,5.4,5.4,0,0,1,1.8,1,4.9,4.9,0,0,1,1.2,1.7,5.2,5.2,0,0,1,.4,2.2H27.9a2.3,2.3,0,0,0-.7-1.7,2.8,2.8,0,0,0-1.9-.6,3.2,3.2,0,0,0-1.4.3,3,3,0,0,0-1,.8,3.5,3.5,0,0,0-.6,1.2,5.7,5.7,0,0,0-.2,1.6,5.8,5.8,0,0,0,.2,1.6,3.4,3.4,0,0,0,.6,1.2,3,3,0,0,0,1,.8,3.1,3.1,0,0,0,1.4.3,2.8,2.8,0,0,0,1.9-.6,2.4,2.4,0,0,0,.8-1.6Z" transform="translate(0 -3.1)" fill="#fff"/>
    <path d="M44.8,15.4H35.6a3.1,3.1,0,0,0,1,2.4,3.5,3.5,0,0,0,2.4.8,3.5,3.5,0,0,0,1.9-.5,2.3,2.3,0,0,0,1-1.4h2.9a5.5,5.5,0,0,1-.7,2,5.3,5.3,0,0,1-1.3,1.5,5.8,5.8,0,0,1-1.8.9,6.9,6.9,0,0,1-2.1.3,6.7,6.7,0,0,1-2.4-.4,5.6,5.6,0,0,1-2-1.3,6.5,6.5,0,0,1-1.4-2.2,7.8,7.8,0,0,1-.5-2.9,8.1,8.1,0,0,1,.5-2.9,6.3,6.3,0,0,1,1.4-2.2,5.8,5.8,0,0,1,2-1.4,6.6,6.6,0,0,1,2.5-.5,6.3,6.3,0,0,1,2.3.4,5.3,5.3,0,0,1,1.9,1.3,5.9,5.9,0,0,1,1.2,2,7.9,7.9,0,0,1,.5,2.8Zm-5.9-5.1a3.4,3.4,0,0,0-2.1.7,3,3,0,0,0-1.1,2h6a2.7,2.7,0,0,0-.8-2A2.9,2.9,0,0,0,38.9,10.4Z" transform="translate(0 -3.1)" fill="#fff"/>
  </g>
  <g style="isolation: isolate">
    <path d="M51.2,17.5v2.9a5.3,5.3,0,0,1-.4,2.2,4.3,4.3,0,0,1-1.1,1.5,4.6,4.6,0,0,1-1.5.9l-1.7.4-.3-1.7a3.8,3.8,0,0,0,2.1-.9,2.7,2.7,0,0,0,.8-1.9H47.5V17.5Z" transform="translate(0 -3.1)" fill="#fff"/>
  </g>
  <g style="isolation: isolate">
    <path d="M13.8,49.9H10.6v-5l-1.4.3H7.8a5.5,5.5,0,0,1-3.7-1.1,4.2,4.2,0,0,1-1.3-3.4V36.6H6v4a2.4,2.4,0,0,0,.2,1,1.5,1.5,0,0,0,.5.6l.8.3H9.5l1-.3V36.6h3.2Z" transform="translate(0 -3.1)" fill="#fff"/>
  </g>
  <g style="isolation: isolate">
    <path d="M15.6,36.6H27.3v2.9H23V49.9H19.8V39.5H15.6Z" transform="translate(0 -3.1)" fill="#fff"/>
  </g>
  <g style="isolation: isolate">
    <path d="M34.5,36.4a6.9,6.9,0,0,1,2.6.5,5.8,5.8,0,0,1,2,1.4,6.3,6.3,0,0,1,1.3,2.2,8,8,0,0,1,.5,2.9,7.9,7.9,0,0,1-.5,2.9,6.3,6.3,0,0,1-1.4,2.2,5.9,5.9,0,0,1-2,1.4,7.2,7.2,0,0,1-5.2,0,5.9,5.9,0,0,1-2-1.4,6.3,6.3,0,0,1-1.3-2.2,8,8,0,0,1-.5-2.9,8.1,8.1,0,0,1,.5-2.8,6.3,6.3,0,0,1,1.3-2.2,5.8,5.8,0,0,1,2-1.4A6.8,6.8,0,0,1,34.5,36.4Zm0,3a2.9,2.9,0,0,0-2.3,1,4.5,4.5,0,0,0-.9,3,4.1,4.1,0,0,0,.9,2.8,3,3,0,0,0,2.3,1,2.8,2.8,0,0,0,2.3-1,4.5,4.5,0,0,0,.9-3,4,4,0,0,0-.9-2.8A3,3,0,0,0,34.5,39.4Z" transform="translate(0 -3.1)" fill="#fff"/>
  </g>
  <g style="isolation: isolate">
    <path d="M59.5,49.9H56.3V44.7H51.1v5.2H47.9V36.6h3.2v5.2h5.2V36.6h3.2Z" transform="translate(0 -3.1)" fill="#fff"/>
    <path d="M74,36.6,68.2,51.8q-.9,2.2-3.7,2.2h-2V51.2h1.4a1.8,1.8,0,0,0,1.9-1.3l.2-.6L61.1,36.6h3.4l3.1,8.6,3.1-8.6Z" transform="translate(0 -3.1)" fill="#fff"/>
    <path d="M79.3,42.1l-4.9-5.5h3.9L82.8,42V36.6H86V42l4.5-5.4h3.9l-4.9,5.5,5.1,7.7H90.8l-3.5-5.4L86,45.9v4H82.8v-4l-1.3-1.5L78,49.9H74.2Z" transform="translate(0 -3.1)" fill="#fff"/>
    <path d="M108,49.9h-3.2V44.7H99.6v5.2H96.4V36.6h3.2v5.2h5.2V36.6H108Z" transform="translate(0 -3.1)" fill="#fff"/>
  </g>
  <g style="isolation: isolate">
    <path d="M116.8,36.4a6.9,6.9,0,0,1,2.6.5,5.8,5.8,0,0,1,2,1.4,6.3,6.3,0,0,1,1.3,2.2,8,8,0,0,1,.5,2.9,7.9,7.9,0,0,1-.5,2.9,6.3,6.3,0,0,1-1.4,2.2,5.9,5.9,0,0,1-2,1.4,7.2,7.2,0,0,1-5.2,0,5.9,5.9,0,0,1-2-1.4,6.3,6.3,0,0,1-1.3-2.2,8,8,0,0,1-.5-2.9,8.1,8.1,0,0,1,.5-2.8,6.3,6.3,0,0,1,1.3-2.2,5.8,5.8,0,0,1,2-1.4A6.8,6.8,0,0,1,116.8,36.4Zm0,3a2.9,2.9,0,0,0-2.3,1,4.5,4.5,0,0,0-.9,3,4.1,4.1,0,0,0,.9,2.8,3,3,0,0,0,2.3,1,2.8,2.8,0,0,0,2.3-1,4.5,4.5,0,0,0,.9-3,4,4,0,0,0-.9-2.8A3,3,0,0,0,116.7,39.4Z" transform="translate(0 -3.1)" fill="#fff"/>
  </g>
  <g style="isolation: isolate">
    <path d="M136.7,40.5a1.3,1.3,0,0,0-.5-1,2.7,2.7,0,0,0-1.8-.4,2.7,2.7,0,0,0-1.7.6,2.2,2.2,0,0,0-.8,1.6h-3.1a4.9,4.9,0,0,1,.5-2,5,5,0,0,1,1.2-1.5,5.5,5.5,0,0,1,1.8-1,6.9,6.9,0,0,1,2.2-.3l2,.2a5.1,5.1,0,0,1,1.7.7,3.4,3.4,0,0,1,1.6,3,2.5,2.5,0,0,1-.6,1.7,3,3,0,0,1-1.4.9,3.7,3.7,0,0,1,1.7,1,2.7,2.7,0,0,1,.7,2,3.7,3.7,0,0,1-.5,1.9,3.9,3.9,0,0,1-1.2,1.3,5.7,5.7,0,0,1-1.8.7l-2.2.2-1.9-.3a5.2,5.2,0,0,1-1.7-.8,5.1,5.1,0,0,1-1.3-1.5,5.9,5.9,0,0,1-.7-2.2H132a2.4,2.4,0,0,0,.9,1.6,2.9,2.9,0,0,0,1.8.5,3.1,3.1,0,0,0,1.8-.4,1.4,1.4,0,0,0,.6-1.2,1.6,1.6,0,0,0-.1-.5l-.3-.5-.6-.4h-3V42h1.5a2.7,2.7,0,0,0,1.6-.4A1.3,1.3,0,0,0,136.7,40.5Z" transform="translate(0 -3.1)" fill="#fff"/>
    <path d="M154.2,49.9H151V44.7h-5.2v5.2h-3.2V36.6h3.2v5.2H151V36.6h3.2Z" transform="translate(0 -3.1)" fill="#fff"/>
    <path d="M162.9,36.4a5.6,5.6,0,0,1,3.7,1.1A4.3,4.3,0,0,1,168,41v8.9h-3.1V47.9a4.4,4.4,0,0,1-4,2.2l-1.6-.3a4,4,0,0,1-1.4-.8,3.7,3.7,0,0,1-.9-1.3,4.2,4.2,0,0,1-.3-1.7q0-3.5,4.2-4l2.9-.4.9-.3a.9.9,0,0,0,.3-.8,1.4,1.4,0,0,0-.6-1.2,2.9,2.9,0,0,0-1.7-.4,2.7,2.7,0,0,0-1.9.6,2.1,2.1,0,0,0-.7,1.5h-3a5,5,0,0,1,.6-2,4.5,4.5,0,0,1,1.2-1.4,5.2,5.2,0,0,1,1.8-.9A8.2,8.2,0,0,1,162.9,36.4Zm-1.3,11.1,1.2-.2,1.1-.7a3,3,0,0,0,.7-1,3.1,3.1,0,0,0,.3-1.3v-.7l-.6.2-1,.2-1.4.2q-2.1.3-2.1,1.7a1.4,1.4,0,0,0,.5,1.2A2.1,2.1,0,0,0,161.6,47.5Z" transform="translate(0 -3.1)" fill="#fff"/>
    <path d="M169.7,36.6h11.8v2.9h-4.3V49.9H174V39.5h-4.3Z" transform="translate(0 -3.1)" fill="#fff"/>
    <path d="M186.4,40.9h2.7a6.6,6.6,0,0,1,2.3.4,4.5,4.5,0,0,1,1.6,1,3.7,3.7,0,0,1,.9,1.4,4.8,4.8,0,0,1,.3,1.7A5,5,0,0,1,194,47a4,4,0,0,1-.9,1.5,4.5,4.5,0,0,1-1.6,1,6.2,6.2,0,0,1-2.3.4h-5.9V36.6h3.2Zm0,2.6v3.7h2.9a1.5,1.5,0,0,0,1.3-.6,2.1,2.1,0,0,0,0-2.5,1.5,1.5,0,0,0-1.3-.6Z" transform="translate(0 -3.1)" fill="#fff"/>
  </g>
  <g style="isolation: isolate">
    <path d="M9.2,65.1a6.9,6.9,0,0,1,2.6.5,5.8,5.8,0,0,1,2,1.4,6.3,6.3,0,0,1,1.3,2.2,8,8,0,0,1,.5,2.9,7.9,7.9,0,0,1-.5,2.9,6.3,6.3,0,0,1-1.4,2.2,5.9,5.9,0,0,1-2,1.4,6.8,6.8,0,0,1-2.6.5,6.8,6.8,0,0,1-2.6-.5,5.9,5.9,0,0,1-2-1.4,6.3,6.3,0,0,1-1.3-2.2A8,8,0,0,1,2.7,72a8.1,8.1,0,0,1,.5-2.8A6.3,6.3,0,0,1,4.5,67a5.8,5.8,0,0,1,2-1.4A6.8,6.8,0,0,1,9.2,65.1Zm0,3a2.9,2.9,0,0,0-2.3,1,4.5,4.5,0,0,0-.9,3,4.1,4.1,0,0,0,.9,2.8,3,3,0,0,0,2.3,1,2.8,2.8,0,0,0,2.3-1,4.5,4.5,0,0,0,.9-3,4,4,0,0,0-.9-2.8A3,3,0,0,0,9.1,68.1Z" transform="translate(0 -3.1)" fill="#fff"/>
  </g>
  <g style="isolation: isolate">
    <path d="M34.2,78.6H31V73.4H25.8v5.2H22.6V65.4h3.2v5.2H31V65.4h3.2Z" transform="translate(0 -3.1)" fill="#fff"/>
    <path d="M48.8,73H39.6a3.1,3.1,0,0,0,1,2.4,3.5,3.5,0,0,0,2.4.8,3.5,3.5,0,0,0,1.9-.5,2.3,2.3,0,0,0,1-1.4h2.9a5.5,5.5,0,0,1-.7,2,5.3,5.3,0,0,1-1.3,1.5,5.8,5.8,0,0,1-1.8.9,6.9,6.9,0,0,1-2.1.3,6.7,6.7,0,0,1-2.4-.4,5.6,5.6,0,0,1-2-1.3A6.5,6.5,0,0,1,37,75a7.8,7.8,0,0,1-.5-2.9,8.1,8.1,0,0,1,.5-2.9A6.3,6.3,0,0,1,38.3,67a5.8,5.8,0,0,1,2-1.4,6.6,6.6,0,0,1,2.5-.5,6.3,6.3,0,0,1,2.3.4,5.3,5.3,0,0,1,1.9,1.3,5.9,5.9,0,0,1,1.2,2,7.9,7.9,0,0,1,.5,2.8Zm-5.9-5.1a3.4,3.4,0,0,0-2.1.7,3,3,0,0,0-1.1,2h6a2.7,2.7,0,0,0-.8-2A2.9,2.9,0,0,0,42.8,67.9Z" transform="translate(0 -3.1)" fill="#fff"/>
    <path d="M58,69.3a1.3,1.3,0,0,0-.5-1,2.7,2.7,0,0,0-1.8-.4,2.7,2.7,0,0,0-1.7.6,2.2,2.2,0,0,0-.8,1.6H50.1a4.9,4.9,0,0,1,.5-2,5,5,0,0,1,1.2-1.5,5.5,5.5,0,0,1,1.8-1,6.9,6.9,0,0,1,2.2-.3l2,.2a5.1,5.1,0,0,1,1.7.7,3.4,3.4,0,0,1,1.6,3,2.5,2.5,0,0,1-.6,1.7,3,3,0,0,1-1.4.9,3.7,3.7,0,0,1,1.7,1,2.7,2.7,0,0,1,.7,2,3.7,3.7,0,0,1-.5,1.9,3.9,3.9,0,0,1-1.2,1.3,5.7,5.7,0,0,1-1.8.7l-2.2.2-1.9-.3a5.2,5.2,0,0,1-1.7-.8,5.1,5.1,0,0,1-1.3-1.5,5.9,5.9,0,0,1-.7-2.2h3.2a2.4,2.4,0,0,0,.9,1.6,2.9,2.9,0,0,0,1.8.5,3.1,3.1,0,0,0,1.8-.4,1.4,1.4,0,0,0,.6-1.2,1.6,1.6,0,0,0-.1-.5l-.3-.5-.6-.4h-3V70.7h1.5a2.7,2.7,0,0,0,1.6-.4A1.3,1.3,0,0,0,58,69.3Z" transform="translate(0 -3.1)" fill="#fff"/>
    <path d="M75.6,78.6H72.4V73.4H67.1v5.2H63.9V65.4h3.2v5.2h5.2V65.4h3.2Z" transform="translate(0 -3.1)" fill="#fff"/>
    <path d="M84.3,65.1A5.6,5.6,0,0,1,88,66.3a4.3,4.3,0,0,1,1.3,3.4v8.9H86.3V76.7a4.4,4.4,0,0,1-4,2.2l-1.6-.3a4,4,0,0,1-1.4-.8,3.7,3.7,0,0,1-.9-1.3,4.2,4.2,0,0,1-.3-1.7q0-3.5,4.2-4l2.9-.4.9-.3a.9.9,0,0,0,.3-.8,1.4,1.4,0,0,0-.6-1.2,2.9,2.9,0,0,0-1.7-.4,2.7,2.7,0,0,0-1.9.6,2.1,2.1,0,0,0-.7,1.5h-3a5,5,0,0,1,.6-2,4.5,4.5,0,0,1,1.2-1.4,5.2,5.2,0,0,1,1.8-.9A8.2,8.2,0,0,1,84.3,65.1ZM83,76.2l1.2-.2,1.1-.7a3,3,0,0,0,.7-1,3.1,3.1,0,0,0,.3-1.3v-.7l-.6.2-1,.2-1.4.2q-2.1.3-2.1,1.7a1.4,1.4,0,0,0,.5,1.2A2.1,2.1,0,0,0,83,76.2Z" transform="translate(0 -3.1)" fill="#fff"/>
  </g>
  <g style="isolation: isolate">
    <path d="M95.5,70.8l4.7-5.4h4l-5.1,5.5,5.3,7.7h-3.9l-3.6-5.3-1.4,1.5v3.8H92.4V65.4h3.2Z" transform="translate(0 -3.1)" fill="#fff"/>
  </g>
  <g style="isolation: isolate">
    <path d="M110.9,65.1a6.9,6.9,0,0,1,2.6.5,5.8,5.8,0,0,1,2,1.4,6.3,6.3,0,0,1,1.3,2.2,8,8,0,0,1,.5,2.9,7.9,7.9,0,0,1-.5,2.9,6.3,6.3,0,0,1-1.4,2.2,5.9,5.9,0,0,1-2,1.4,7.2,7.2,0,0,1-5.2,0,5.9,5.9,0,0,1-2-1.4,6.3,6.3,0,0,1-1.3-2.2,8,8,0,0,1-.5-2.9,8.1,8.1,0,0,1,.5-2.8,6.3,6.3,0,0,1,1.3-2.2,5.8,5.8,0,0,1,2-1.4A6.8,6.8,0,0,1,110.9,65.1Zm0,3a2.9,2.9,0,0,0-2.3,1,4.5,4.5,0,0,0-.9,3,4.1,4.1,0,0,0,.9,2.8,3,3,0,0,0,2.3,1,2.8,2.8,0,0,0,2.3-1,4.5,4.5,0,0,0,.9-3,4,4,0,0,0-.9-2.8A3,3,0,0,0,110.9,68.1Z" transform="translate(0 -3.1)" fill="#fff"/>
    <path d="M131.2,78.6V70.4l-3.1,8.2h-2.4l-3.1-8.2v8.2h-2.9V65.4h3.9l3.3,8.7,3.5-8.7h3.8V78.6Z" transform="translate(0 -3.1)" fill="#fff"/>
    <path d="M142.9,65.1a6.9,6.9,0,0,1,2.6.5,5.8,5.8,0,0,1,2,1.4,6.3,6.3,0,0,1,1.3,2.2,8,8,0,0,1,.5,2.9,7.9,7.9,0,0,1-.5,2.9,6.3,6.3,0,0,1-1.4,2.2,5.9,5.9,0,0,1-2,1.4,7.2,7.2,0,0,1-5.2,0,5.9,5.9,0,0,1-2-1.4,6.3,6.3,0,0,1-1.3-2.2,8,8,0,0,1-.5-2.9,8.1,8.1,0,0,1,.5-2.8,6.3,6.3,0,0,1,1.3-2.2,5.8,5.8,0,0,1,2-1.4A6.8,6.8,0,0,1,142.9,65.1Zm0,3a2.9,2.9,0,0,0-2.3,1,4.5,4.5,0,0,0-.9,3,4.1,4.1,0,0,0,.9,2.8,3,3,0,0,0,2.3,1,2.8,2.8,0,0,0,2.3-1,4.5,4.5,0,0,0,.9-3,4,4,0,0,0-.9-2.8A3,3,0,0,0,142.9,68.1Z" transform="translate(0 -3.1)" fill="#fff"/>
    <path d="M163.1,78.6V70.4l-3.1,8.2h-2.4l-3.1-8.2v8.2h-2.9V65.4h3.9l3.3,8.7,3.5-8.7h3.8V78.6Z" transform="translate(0 -3.1)" fill="#fff"/>
  </g>
  <g style="isolation: isolate">
    <path d="M12.6,94.1V97H6.7v10.4H3.6V94.1Z" transform="translate(0 -3.1)" fill="#fff"/>
  </g>
  <g style="isolation: isolate">
    <path d="M19.6,93.9a6.9,6.9,0,0,1,2.6.5,5.8,5.8,0,0,1,2,1.4,6.3,6.3,0,0,1,1.3,2.2,8,8,0,0,1,.5,2.9,7.9,7.9,0,0,1-.5,2.9,6.3,6.3,0,0,1-1.4,2.2,5.9,5.9,0,0,1-2,1.4,7.2,7.2,0,0,1-5.2,0,5.8,5.8,0,0,1-2-1.4,6.3,6.3,0,0,1-1.3-2.2,8,8,0,0,1-.5-2.9,8.1,8.1,0,0,1,.5-2.8,6.2,6.2,0,0,1,1.3-2.2,5.8,5.8,0,0,1,2-1.4A6.8,6.8,0,0,1,19.6,93.9Zm0,3a2.9,2.9,0,0,0-2.3,1,4.5,4.5,0,0,0-.9,3,4.1,4.1,0,0,0,.9,2.8,3,3,0,0,0,2.3,1,2.8,2.8,0,0,0,2.3-1,4.5,4.5,0,0,0,.9-3,4,4,0,0,0-.9-2.8A3,3,0,0,0,19.5,96.9Z" transform="translate(0 -3.1)" fill="#fff"/>
    <path d="M35.5,93.9a5.8,5.8,0,0,1,2.3.4,5.1,5.1,0,0,1,1.8,1.3,6.2,6.2,0,0,1,1.2,2.1,9.8,9.8,0,0,1,0,5.9,6.3,6.3,0,0,1-1.2,2.1,5,5,0,0,1-1.8,1.3,6.1,6.1,0,0,1-2.3.4,4.3,4.3,0,0,1-4-2v6.9H28.3V94.1h3.1v2.1A3.7,3.7,0,0,1,33,94.5,5.1,5.1,0,0,1,35.5,93.9Zm-.8,10.7,1.3-.3a3,3,0,0,0,1.1-.8,3.5,3.5,0,0,0,.7-1.2,5.6,5.6,0,0,0,0-3.3,3.5,3.5,0,0,0-.7-1.2,3,3,0,0,0-1.1-.8l-1.3-.3-1.3.3a2.9,2.9,0,0,0-1.1.7,3.6,3.6,0,0,0-.7,1.2,5.5,5.5,0,0,0,0,3.4,3.6,3.6,0,0,0,.7,1.2,2.9,2.9,0,0,0,1.1.7Z" transform="translate(0 -3.1)" fill="#fff"/>
  </g>
  <g style="isolation: isolate">
    <path d="M49.2,93.9a6.9,6.9,0,0,1,2.6.5,5.8,5.8,0,0,1,2,1.4,6.3,6.3,0,0,1,1.3,2.2,8,8,0,0,1,.5,2.9,7.9,7.9,0,0,1-.5,2.9,6.3,6.3,0,0,1-1.4,2.2,5.9,5.9,0,0,1-2,1.4,7.2,7.2,0,0,1-5.2,0,5.8,5.8,0,0,1-2-1.4,6.3,6.3,0,0,1-1.3-2.2,8,8,0,0,1-.5-2.9,8.1,8.1,0,0,1,.5-2.8,6.2,6.2,0,0,1,1.3-2.2,5.8,5.8,0,0,1,2-1.4A6.8,6.8,0,0,1,49.2,93.9Zm0,3a2.9,2.9,0,0,0-2.3,1,4.5,4.5,0,0,0-.9,3,4.1,4.1,0,0,0,.9,2.8,3,3,0,0,0,2.3,1,2.8,2.8,0,0,0,2.3-1,4.5,4.5,0,0,0,.9-3,4,4,0,0,0-.9-2.8A3,3,0,0,0,49.2,96.9Z" transform="translate(0 -3.1)" fill="#fff"/>
    <path d="M70.6,110.7H67.6v-3.4H59.1v3.4H56.1v-6.2h1.6l.3-1a12,12,0,0,0,.2-1.4q.1-.8.1-2.1t0-3v-3H68.7v10.4h1.9ZM61.5,97.9q0,.9,0,1.9t-.1,1.9-.2,1.7a8.8,8.8,0,0,1-.3,1.2h4.7V97h-4Z" transform="translate(0 -3.1)" fill="#fff"/>
  </g>
  <g style="isolation: isolate">
    <path d="M84,101.7H74.8a3.1,3.1,0,0,0,1,2.4,3.5,3.5,0,0,0,2.4.8,3.5,3.5,0,0,0,1.9-.5,2.3,2.3,0,0,0,1-1.4H84a5.5,5.5,0,0,1-.7,2,5.3,5.3,0,0,1-1.3,1.5,5.8,5.8,0,0,1-1.8.9,6.9,6.9,0,0,1-2.1.3,6.7,6.7,0,0,1-2.4-.4,5.6,5.6,0,0,1-2-1.3,6.5,6.5,0,0,1-1.4-2.2,7.8,7.8,0,0,1-.5-2.9,8.1,8.1,0,0,1,.5-2.9,6.3,6.3,0,0,1,1.4-2.2,5.8,5.8,0,0,1,2-1.4,6.6,6.6,0,0,1,2.5-.5,6.3,6.3,0,0,1,2.3.4,5.3,5.3,0,0,1,1.9,1.3,5.9,5.9,0,0,1,1.2,2,7.9,7.9,0,0,1,.5,2.8Zm-5.9-5.1a3.4,3.4,0,0,0-2.1.7,3,3,0,0,0-1.1,2h6a2.7,2.7,0,0,0-.8-2A2.9,2.9,0,0,0,78.1,96.7Z" transform="translate(0 -3.1)" fill="#fff"/>
  </g>
  <g style="isolation: isolate">
    <path d="M85.4,103.7H89v3.7H85.4Z" transform="translate(0 -3.1)" fill="#fff"/>
  </g>
</svg>
